<svg id="All3Media_Logo" data-name="All3Media Logo" xmlns="http://www.w3.org/2000/svg" xmlns:xlink="http://www.w3.org/1999/xlink" width="100.045" height="45.994" viewBox="0 0 100.045 45.994">
  <defs>
    <clipPath id="clip-path">
      <rect id="Rectangle_1" data-name="Rectangle 1" width="100.045" height="45.952" fill="#fff"></rect>
    </clipPath>
  </defs>
  <g id="Group_1" data-name="Group 1" clip-path="url(#clip-path)">
    <path id="Path_1" data-name="Path 1" d="M354.8,145.173a.937.937,0,0,1-.932-.952v-.2a1,1,0,0,1,.5-.875l4.99-3.256-5-3.272a.954.954,0,0,1-.481-.86v-.2a.937.937,0,0,1,.932-.952H363.6a.925.925,0,0,1,.917.952.941.941,0,0,1-.917.937h-6.312l3.862,2.626a.891.891,0,0,1,0,1.582l-3.832,2.611h6.3a.909.909,0,0,1,.9.937.9.9,0,0,1-.9.922Z" transform="translate(-264.475 -99.856)" fill="#FFFFFF"></path>
    <path id="Path_2" data-name="Path 2" d="M363.69,106.919h-8.657a.928.928,0,0,1-.932-.952V99.716a.843.843,0,0,1,.827-.845.834.834,0,0,1,.827.845v5.314h2.735v-4.623a.846.846,0,0,1,.842-.845.83.83,0,0,1,.812.845v4.623h2.826V99.639a.843.843,0,0,1,.827-.845.833.833,0,0,1,.826.845v6.328a.928.928,0,0,1-.932.952" transform="translate(-264.652 -73.289)" fill="#FFFFFF"></path>
    <path id="Path_3" data-name="Path 3" d="M355.034,67.648a.928.928,0,0,1-.932-.952V63.639c0-3.379,2.269-5.713,5.23-5.713h.03c2.961,0,5.26,2.334,5.26,5.713V66.7a.928.928,0,0,1-.932.952Zm7.905-4.009a3.469,3.469,0,0,0-3.547-3.732h-.03a3.492,3.492,0,0,0-3.577,3.732v2.119h7.154Z" transform="translate(-264.652 -42.972)" fill="#FFFFFF"></path>
    <path id="Path_4" data-name="Path 4" d="M354.722,48.791a.945.945,0,0,1,0-1.889h8.837a.945.945,0,0,1,0,1.889Z" transform="translate(-264.43 -34.794)" fill="#FFFFFF"></path>
    <path id="Path_5" data-name="Path 5" d="M362.975,13.038l-8.717-3.993a1.2,1.2,0,0,1-.751-1.137V7.816a1.178,1.178,0,0,1,.751-1.121L362.975,2.7a.792.792,0,0,1,.391-.108.876.876,0,0,1,.887.891.972.972,0,0,1-.646.922l-1.969.875V10.5l2.029.906a.908.908,0,0,1,.586.875.857.857,0,0,1-.857.876.933.933,0,0,1-.421-.123M360,6l-4.253,1.889L360,9.782Z" transform="translate(-264.208 -1.924)" fill="#FFFFFF"></path>
    <path id="Path_6" data-name="Path 6" d="M226.4,5.01A4.956,4.956,0,0,1,231.3,0h14.439a6.039,6.039,0,0,0-.853.774l-8.355,9.243H231.3a4.956,4.956,0,0,1-4.9-5.009" transform="translate(-169.208 -0.001)" fill="#FFFFFF"></path>
    <path id="Path_7" data-name="Path 7" d="M24.623,3.011a4.845,4.845,0,0,0-8.963,0C12.8,9.763,4.2,30.009,4.2,30.009L.48,38.752a5.12,5.12,0,0,0,2.735,6.9,4.823,4.823,0,0,0,4.875-.938c1.049-.939,1.51-2.351,2.311-3.484a11.824,11.824,0,0,1,2.877-2.843,12.02,12.02,0,0,1,14.767.806L22.587,26.34a18.092,18.092,0,0,0-2.445-.146,21.788,21.788,0,0,0-3.814.336l3.814-8.989,10.79,25.41a4.884,4.884,0,0,0,4.484,3.007,4.781,4.781,0,0,0,1.942-.414,5.035,5.035,0,0,0,2.537-6.568S28.444,12,24.623,3.011" transform="translate(0 -0.006)" fill="#FFFFFF"></path>
    <path id="Path_8" data-name="Path 8" d="M137.184,32.026c-3.107-7.242-12.328-29.012-12.328-29.012a4.861,4.861,0,0,0-6.447-2.6A5.051,5.051,0,0,0,115.866,7l12.329,29.012c0,.007.007.015.011.022a15.766,15.766,0,0,0,14.588,9.912,15.468,15.468,0,0,0,3.254-.351,19.424,19.424,0,0,1-6.564-8.266c-.566-1.331-1.729-3.979-2.3-5.308" transform="translate(-86.293 0)" fill="#FFFFFF"></path>
    <path id="Path_9" data-name="Path 9" d="M263.615,15.311l6.2-6.851a5.128,5.128,0,0,0-.967-7.628,4.829,4.829,0,0,0-6.179.815L250.295,15.341a5.074,5.074,0,0,0,1.4,7.81,4.818,4.818,0,0,0,1.719.509c1.072.107,2.181.024,3.258.024a6.151,6.151,0,0,1,0,12.3,5.917,5.917,0,0,1-2.946-.784s2.012,6.57,7.71,10.05a16.3,16.3,0,0,0,2.183-29.939" transform="translate(-186.124 -0.05)" fill="#FFFFFF"></path>
    <path id="Path_10" data-name="Path 10" d="M192.779,32.026c-3.107-7.242-12.328-29.012-12.328-29.012A4.861,4.861,0,0,0,174,.415,5.051,5.051,0,0,0,171.461,7l12.328,29.012.011.022a15.766,15.766,0,0,0,14.588,9.912,15.469,15.469,0,0,0,3.254-.351c-4.658-3.425-6.061-7.05-7.508-10.45-.566-1.331-.785-1.8-1.356-3.124" transform="translate(-127.844 0)" fill="#FFFFFF"></path>
  </g>
</svg>