
<svg width="137px" height="38px" viewBox="0 0 137 38" version="1.1" xmlns="http://www.w3.org/2000/svg" xmlns:xlink="http://www.w3.org/1999/xlink">
    <g id="Symbols" stroke="none" stroke-width="1" fill="none" fill-rule="evenodd">
        <g id="Desktop-/-Navigation-/-Footer-/-Lead" transform="translate(-97.000000, -421.000000)" fill="#FFFFFF" fill-rule="nonzero">
            <g id="gd-logo" transform="translate(97.000000, 421.000000)">
                <path d="M6.84520835,25.1299678 L0,25.1299678 C0,32.0895314 5.61790276,37.7315938 12.5484749,37.7315938 L12.5484749,30.8573939 C9.39252857,30.8493975 6.83986421,28.2859198 6.84520835,25.1299678 Z" id="Path"></path>
                <path d="M21.7387711,3.99196445 C19.3571592,1.49266575 16.0539496,0.0806644677 12.6016259,0.0861530588 C5.64206232,0.0861530588 0,5.70407186 0,12.634644 C0,19.5652161 5.64206232,25.1831189 12.6016259,25.1831189 C19.5611895,25.1831189 25.2064731,19.5644108 25.2064731,12.634644 C25.2064731,12.6137057 25.2064731,12.5935727 25.2064731,12.5734398 L25.2064731,12.5734398 C25.2111158,9.896236 27.0750353,7.58165442 29.6896819,7.00627208 L29.6896819,0.0861530588 C26.6536453,0.381608443 23.8282129,1.76957026 21.7387711,3.99196445 Z M12.6016259,18.3379203 C9.45442863,18.3245804 6.91271169,15.7647446 6.92171317,12.617532 C6.93076257,9.47031943 9.48711954,6.92510362 12.6343415,6.92981784 C15.7815635,6.93454517 18.3302734,9.48741849 18.3298573,12.634644 C18.3218608,15.7909053 15.7578921,18.3436997 12.6016259,18.3379203 Z" id="Shape"></path>
                <path d="M45.6204951,4.49448327 C44.9528859,3.51924241 43.6788718,3.07148525 42.3847248,3.07148525 C39.377665,3.07148525 36.5381116,5.28691681 36.5381116,9.14841964 C36.5381116,12.7659109 39.2310971,15.0836179 42.3847248,15.0836179 C44.2015236,15.0836179 45.20334,14.1277047 45.5995568,13.4729807 L45.5995568,13.9827474 C45.5995568,15.9340344 44.0968322,16.7264679 42.7809416,16.7264679 C42.4695728,16.7301572 42.1596238,16.6839367 41.8628783,16.5895638 C41.4658563,16.4470224 41.0060193,16.3238086 40.7563705,15.7745813 L36.7474944,15.7745813 C36.9770102,17.3803867 38.5006731,19.5772959 42.5304875,19.5772959 C43.5916938,19.5866263 44.6454251,19.3990353 45.6382121,19.024042 L45.6382121,22.6342854 C45.2645442,22.2686708 44.2876927,21.2934299 42.2518472,21.2934299 C39.3229034,21.2934299 36.5381116,23.4677902 36.5381116,27.2882218 C36.5381116,30.6826398 38.8236058,33.3281115 42.3138568,33.3281115 C44.6412276,33.3281115 45.4723164,32.2103292 45.804913,31.7424391 L45.804913,32.9624968 L49.0873918,32.9624968 L49.0873918,18.2412723 L47.1055026,18.2412723 C47.6187253,17.8858418 48.0582086,17.4343253 48.3996497,16.9116912 C48.9633727,15.9565833 49.0890024,15.0409361 49.0890024,13.3537935 L49.0890024,3.43790523 L45.6261323,3.43790523 L45.6204951,4.49448327 Z M44.8063179,11.1609109 C44.3054097,11.6441021 43.6378006,11.9332115 42.7817469,11.9332115 C41.3410319,11.9332115 40.0042029,10.8355622 40.0042029,9.04694949 L40.0042029,9.0260112 C39.9974971,8.28139574 40.2898889,7.56523541 40.815827,7.03808619 C41.3417651,6.51093697 42.0572509,6.21689867 42.8018799,6.22189173 C43.7207484,6.22189173 44.4310394,6.54401919 44.8900711,7.09566245 C45.3732622,7.62395147 45.6204951,8.37611907 45.6204951,9.20962385 C45.5810345,10.0020574 45.2870932,10.6728878 44.8063179,11.1609109 Z M45.0173114,29.320846 C44.442031,29.8724388 43.6745619,30.1783288 42.8775798,30.1737307 C41.2564734,30.1737307 39.9897072,29.0148249 39.9897072,27.2874165 L39.9897072,27.2672835 C39.9897072,25.9666939 40.9246821,24.4430311 42.9186511,24.4430311 C43.7296069,24.4430311 44.4560043,24.7273085 44.9754348,25.2346593 C46.0963005,26.3595251 46.114888,28.1732449 45.0173114,29.320846 L45.0173114,29.320846 Z" id="Shape"></path>
                <path d="M53.473157,8.66120186 C53.473157,7.07552948 54.3131044,6.44254904 56.1001064,6.44254904 L56.2257361,6.44254904 L56.2257361,3.05135229 C54.2076076,3.05135229 53.5987867,4.08779737 53.2621635,4.69742357 L53.2621635,3.43790523 L49.9821008,3.43790523 L49.9821008,14.717198 L53.473157,14.717198 L53.473157,8.66120186 Z" id="Path"></path>
                <path d="M61.798541,15.0836179 C62.9797014,15.091513 64.1347923,14.7364681 65.1075953,14.0665005 C66.0925,13.4166084 66.909093,12.4413675 67.4744267,11.1810439 L63.9133077,11.1810439 C63.4945421,11.7705371 62.9082701,12.2376219 61.798541,12.2376219 C60.4367472,12.2376219 59.2642033,11.4451884 59.11683,10.2460689 L67.768368,10.2460689 C68.0397604,8.17317877 67.6000564,6.36443313 66.1335712,4.83996497 C65.0447804,3.72218271 63.5162857,3.05135229 61.7357262,3.05135229 C58.1923242,3.05135229 55.6402695,5.95774722 55.6402695,9.1081537 C55.6402695,12.4615005 58.4661325,15.0836179 61.798541,15.0836179 Z M61.7566645,5.89654301 C63.5581622,5.89654301 64.2700639,7.15686666 64.353817,7.68515569 L59.1595119,7.68515569 C59.243265,7.15686666 59.9551667,5.89654301 61.7566645,5.89654301 L61.7566645,5.89654301 Z" id="Shape"></path>
                <path d="M74.3695648,15.0836179 C75.5509537,15.0913666 76.7062585,14.7363423 77.6794244,14.0665005 C78.6635238,13.4166084 79.4801169,12.4413675 80.0454505,11.1810439 L76.4851369,11.1810439 C76.0663712,11.7705371 75.4792939,12.2376219 74.3695648,12.2376219 C73.007771,12.2376219 71.8352271,11.4451884 71.6886591,10.2460689 L80.3393918,10.2460689 C80.6107842,8.17317877 80.1710802,6.36443313 78.704595,4.83996497 C77.6158042,3.72218271 76.0873095,3.05135229 74.30675,3.05135229 C70.7665693,3.05135229 68.210488,5.95935786 68.210488,9.1081537 C68.210488,12.4615005 71.038767,15.0836179 74.3695648,15.0836179 Z M74.3309095,5.89654301 C76.131602,5.89654301 76.844309,7.15686666 76.9280621,7.68515569 L71.733757,7.68515569 C71.8142888,7.15686666 72.5261905,5.89654301 74.3309095,5.89654301 Z" id="Shape"></path>
                <path d="M84.3820914,8.57986468 C84.3820914,7.42101117 84.6542891,6.22189173 86.3720337,6.22189173 C87.9222721,6.22189173 88.1944698,7.31954103 88.1944698,8.55731576 L88.1944698,14.7155873 L91.6710303,14.7155873 L91.6710303,7.66502272 C91.6710303,6.14055455 91.2732029,3.05135229 87.3561331,3.05135229 C85.2832429,3.05135229 84.5495976,4.08779737 84.1517702,4.63702467 L84.1517702,3.43790523 L80.9055308,3.43790523 L80.9055308,14.717198 L84.3820914,14.717198 L84.3820914,8.57986468 Z" id="Path"></path>
                <polygon id="Path" points="103.671889 10.4490092 101.702884 3.43790523 98.7707193 3.43790523 96.8645301 10.4490092 95.0839706 3.43790523 91.4817804 3.43790523 95.0420941 14.717198 98.2682005 14.717198 100.215461 7.42101117 102.206209 14.717198 105.43151 14.717198 108.991823 3.43790523 105.410571 3.43790523"></polygon>
                <rect id="Rectangle" x="109.413005" y="3.43790523" width="3.47736584" height="11.2792927"></rect>
                <rect id="Rectangle" x="109.413005" y="0" width="3.47736584" height="2.23878579"></rect>
                <path d="M119.634914,11.9332115 C117.979985,11.9332115 116.870256,10.7131537 116.870256,9.06708245 C116.870256,8.25451596 117.141648,7.52248132 117.624034,6.9941923 C118.142863,6.44226536 118.881496,6.15153913 119.63733,6.20175877 C121.082072,6.20175877 121.773841,7.01432527 122.15073,7.78662583 L125.669167,7.78662583 C125.082895,5.02277229 122.590434,3.05135229 119.511701,3.05135229 C116.034335,3.05135229 113.374367,5.73386864 113.374367,9.04694949 C113.374367,12.4002963 116.076211,15.0868392 119.595454,15.0868392 C122.736196,15.0868392 125.061957,12.9930108 125.69091,10.4320975 L122.147509,10.4320975 C121.771425,11.1198396 121.079656,11.9332115 119.634914,11.9332115 Z" id="Path"></path>
                <path d="M136.204345,4.65715764 C135.575391,3.66097849 134.527672,3.05135229 132.747918,3.05135229 C131.512559,3.05135229 130.33921,3.4540116 129.711061,4.47435031 L129.711061,0 L126.233695,0 L126.233695,14.717198 L129.711061,14.717198 L129.711061,8.45584561 C129.711061,8.17156814 129.711061,7.62234083 129.961515,7.13512306 C130.192642,6.64709997 130.69516,6.2202811 131.658322,6.2202811 C132.4121,6.2202811 132.873547,6.50536389 133.166683,6.93137745 C133.438881,7.35819632 133.523439,7.94768956 133.523439,8.57825405 L133.523439,14.7155873 L137,14.7155873 L137,8.41719032 C137,6.97405933 136.832494,5.6323985 136.204345,4.65715764 Z" id="Path"></path>
                <path d="M55.7046949,21.2926246 C52.161293,21.2926246 49.6092382,24.1990195 49.6092382,27.3486207 C49.6092382,30.7019674 52.4367119,33.3240849 55.7675098,33.3240849 C56.9488201,33.3321222 58.1041327,32.9773765 59.0773694,32.3077728 C60.0614687,31.6570753 60.8820884,30.6826398 61.4458115,29.4223161 L57.8830818,29.4223161 C57.4643162,30.0110041 56.8772389,30.4788942 55.7675098,30.4788942 C54.405716,30.4788942 53.2331721,29.6856553 53.0866041,28.4865359 L61.7373368,28.4865359 C62.0087292,26.4136457 61.5690252,24.6049001 60.1033453,23.0804319 C59.0137492,21.9626497 57.4852544,21.2926246 55.7046949,21.2926246 Z M53.1276753,25.926428 C53.2082072,25.3981389 53.9233301,24.1378153 55.7248279,24.1378153 C57.5263257,24.1378153 58.2382274,25.3981389 58.3219805,25.926428 L53.1276753,25.926428 Z" id="Shape"></path>
                <path d="M67.3721513,25.8652238 C66.4508667,25.6010792 65.5923971,25.2555976 65.5923971,24.7474415 C65.5923971,24.4430311 65.8436565,23.9952739 66.5764965,23.9952739 C67.6024724,23.9952739 67.6451543,24.6049001 67.6660926,24.8489116 L71.0798382,24.8489116 C70.7867022,21.8813125 68.1476731,21.2926246 66.618373,21.2926246 C64.209665,21.2926246 62.1150312,22.7760215 62.1150312,25.1130562 C62.1150312,26.6375243 63.3721336,27.5934375 64.8796901,28.059717 C67.1007589,28.8940271 67.9592285,28.9954973 67.9592285,29.7669925 C67.9592285,30.3162198 67.3302747,30.6407632 66.7440027,30.6407632 C66.5974347,30.6407632 65.5706535,30.4579559 65.4248908,29.4223161 L61.9684633,29.4223161 C62.2825375,32.3899153 64.942505,33.3442179 66.7021262,33.3442179 C69.2791458,33.3442179 71.4357891,31.8809539 71.4357891,29.3981566 C71.4357891,26.962873 69.337934,26.3935128 67.3721513,25.8652238 Z" id="Path"></path>
                <rect id="Rectangle" x="72.1283631" y="18.2412723" width="3.47736584" height="2.23878579"></rect>
                <rect id="Rectangle" x="72.1283631" y="21.6783722" width="3.47736584" height="11.2792927"></rect>
                <path d="M85.2188174,22.7349502 C84.5487923,21.7597094 83.2707517,21.3127575 81.972578,21.3127575 C78.9566597,21.3127575 76.1082478,23.5281891 76.1082478,27.3888866 C76.1082478,31.0071832 78.8092864,33.3240849 81.972578,33.3240849 C83.7950141,33.3240849 84.8000517,32.3681717 85.1978791,31.7182796 L85.1978791,32.2280462 C85.1978791,34.1793333 83.6903227,34.9717668 82.3712107,34.9717668 C82.0581962,34.9739548 81.7468639,34.9258275 81.4491209,34.8292254 C81.0504882,34.6874893 80.5898459,34.5634703 80.3393918,34.0150483 L76.3176306,34.0150483 C76.5479517,35.6200483 78.0764465,37.8169575 82.1159247,37.8169575 C84.985275,37.8169575 87.1008471,36.5775722 88.0019986,35.1545742 C88.5657216,34.1994663 88.692962,33.2830137 88.692962,31.5966764 L88.692962,21.6783722 L85.2188174,21.6783722 L85.2188174,22.7349502 Z M84.4022243,29.4013779 C83.8997055,29.8894009 83.2296804,30.1736784 82.3712107,30.1736784 C80.9216372,30.1736784 79.5848083,29.0768345 79.5848083,27.2874165 L79.5848083,27.2672835 C79.5791735,26.5213783 79.8731037,25.8044108 80.4007047,25.2771126 C80.9283058,24.7498143 81.6454418,24.4562958 82.3913437,24.4623587 C83.3134335,24.4623587 84.0253352,24.7844862 84.4851721,25.3369347 C84.9683633,25.8652238 85.2180121,26.616586 85.2180121,27.4508961 C85.1769408,28.2433297 84.8805836,28.9109388 84.4022243,29.4013779 L84.4022243,29.4013779 Z" id="Shape"></path>
                <path d="M96.0422998,21.2926246 C93.9694096,21.2926246 93.2357644,22.3290697 92.837937,22.8774916 L92.837937,21.6783722 L89.5916976,21.6783722 L89.5916976,32.9584702 L93.0682581,32.9584702 L93.0682581,26.8171104 C93.0682581,25.6582569 93.3404558,24.4591374 95.0582004,24.4591374 C96.6084388,24.4591374 96.8798312,25.5567867 96.8798312,26.7945615 L96.8798312,32.952833 L100.357197,32.952833 L100.357197,25.9054897 C100.357197,24.3818268 99.9593696,21.2926246 96.0422998,21.2926246 Z" id="Path"></path>
            </g>
        </g>
    </g>
</svg>