
<svg width="9px" height="8px" viewBox="0 0 9 8" version="1.1" xmlns="http://www.w3.org/2000/svg" xmlns:xlink="http://www.w3.org/1999/xlink">
    <g id="Symbols" stroke="none" stroke-width="1" fill="none" fill-rule="evenodd">
        <g id="Content-/-Listing-/-Episode" transform="translate(-291.000000, -249.000000)" fill="#1DB1A8" fill-rule="nonzero">
            <g id="Content-/-Card-/-Horizontal-/-Off" transform="translate(-0.500000, 0.000000)">
                <path d="M299.725236,249 L292.274764,249 C291.850236,249 291.5,249.382609 291.5,249.846377 L291.5,256.153623 C291.5,256.617391 291.850236,257 292.274764,257 L299.725236,257 C300.149764,257 300.5,256.617391 300.5,256.153623 L300.5,249.846377 C300.5,249.382609 300.149764,249 299.725236,249 Z M294.864387,250.24058 C295.235849,250.24058 295.543632,250.576812 295.543632,250.982609 C295.543632,251.388406 295.235849,251.724638 294.864387,251.724638 C294.492925,251.724638 294.185142,251.388406 294.185142,250.982609 C294.185142,250.576812 294.482311,250.24058 294.864387,250.24058 Z M299.34316,255.886957 L292.35967,255.875362 C292.115566,255.875362 291.966981,255.585507 292.083726,255.365217 L293.293632,253.081159 C293.410377,252.849275 293.71816,252.849275 293.834906,253.081159 L294.790094,254.889855 L296.795991,251.086957 C297.008255,250.692754 297.528302,250.692754 297.729953,251.086957 L299.799528,254.994203 C300.022406,255.388406 299.757075,255.886957 299.34316,255.886957 Z" id="Shape"></path>
            </g>
        </g>
    </g>
</svg>