
<svg width="30px" height="20px" viewBox="0 0 30 20" version="1.1" xmlns="http://www.w3.org/2000/svg" xmlns:xlink="http://www.w3.org/1999/xlink">
    <g id="Symbols" stroke="none" stroke-width="1" fill="none" fill-rule="evenodd">
        <g id="Show-Contact-Panel" transform="translate(-242.000000, -105.000000)" fill="#FFFFFF" fill-rule="nonzero">
            <g id="view" transform="translate(242.000000, 105.000000)">
                <path d="M15.0904315,6.00102666 C13.6404162,5.96823654 12.286255,6.72293051 11.5514076,7.97337677 C10.8165603,9.22382303 10.8161726,10.7740848 11.5503945,12.0248984 C12.2846164,13.275712 13.6384,14.0310832 15.0884315,13.9990182 C17.2621913,13.9509493 18.9994562,12.1752892 19,10.0010003 C19.0005436,7.82671147 17.264167,6.05018273 15.0904315,6.00102666 Z" id="Path"></path>
                <path d="M15,3 C20.865,3 24.60375,6.884 26.65875,10 C24.60375,13.116 20.865,17 15,17 C9.135,17 5.39625,13.116 3.34125,10 C5.39625,6.884 9.135,3 15,3 M15,0 C8.26875,0 3.14625,4.266 0,10 C3.14625,15.734 8.26875,20 15,20 C21.73125,20 26.85375,15.734 30,10 C26.85375,4.266 21.729375,0 15,0 Z" id="Shape"></path>
            </g>
        </g>
    </g>
</svg>