
<svg width="20px" height="20px" viewBox="0 0 20 20" version="1.1" xmlns="http://www.w3.org/2000/svg" xmlns:xlink="http://www.w3.org/1999/xlink">
    <g id="Symbols" stroke="none" stroke-width="1" fill="none" fill-rule="evenodd">
        <g id="Show-Contact-Panel" transform="translate(-299.000000, -105.000000)" fill="#FFFFFF" fill-rule="nonzero">
            <g id="noun_tick_801900" transform="translate(299.000000, 105.000000)">
                <path d="M9.6,0 C4.3,0 0,4.3 0,9.6 C0,14.9 4.3,19.2 9.6,19.2 C14.9,19.2 19.2,14.9 19.2,9.6 C19.2,4.3 14.9,0 9.6,0 Z M14.54,7.28 L8.9,12.94 C8.72,13.12 8.46,13.24 8.2,13.24 C7.94,13.24 7.68,13.14 7.5,12.94 L4.66,10.1 C4.26,9.7 4.26,9.08 4.66,8.68 C5.06,8.28 5.68,8.28 6.08,8.68 L8.2,10.8 L13.14,5.86 C13.54,5.46 14.16,5.46 14.56,5.86 C14.94,6.26 14.94,6.88 14.54,7.28 Z" id="Shape"></path>
            </g>
        </g>
    </g>
</svg>