<svg class="mx-auto" width="24px" height="24px" viewBox="0 0 24 24" version="1.1" xmlns="http://www.w3.org/2000/svg" xmlns:xlink="http://www.w3.org/1999/xlink">
					<g id="Symbols" stroke="none" stroke-width="1" fill="none" fill-rule="evenodd">
						<g id="Desktop-/-Assets-/-Search-Button" transform="translate(-104.000000, -18.000000)" fill="#FFFFFF" fill-rule="nonzero">
							<path d="M127.601721,39.7297297 L123.294407,35.4545455 C126.657652,31.1498771 126.303626,25.017199 122.438844,21.1547912 C120.403196,19.1203931 117.688998,18 114.797787,18 C111.906577,18 109.192379,19.1203931 107.15673,21.1547912 C105.121082,23.1891892 104,25.9017199 104,28.7911548 C104,31.6805897 105.121082,34.3931204 107.15673,36.4275184 C109.192379,38.4619165 111.906577,39.5823096 114.797787,39.5823096 C117.187462,39.5823096 119.547634,38.7862408 121.435771,37.2825553 L125.713583,41.6167076 C125.979103,41.8820639 126.303626,42 126.657652,42 C127.011678,42 127.336202,41.8525799 127.601721,41.6167076 C128.13276,41.1154791 128.13276,40.2604423 127.601721,39.7297297 Z M122.940381,28.7911548 C122.940381,30.972973 122.084819,33.007371 120.550707,34.5405405 C119.016595,36.0737101 116.951444,36.9287469 114.797787,36.9287469 C112.64413,36.9287469 110.57898,36.0737101 109.044868,34.5405405 C107.510756,33.007371 106.655194,30.9434889 106.655194,28.7911548 C106.655194,26.6093366 107.510756,24.5749386 109.044868,23.041769 C110.57898,21.5085995 112.64413,20.6535627 114.797787,20.6535627 C116.980947,20.6535627 119.016595,21.5085995 120.550707,23.041769 C122.084819,24.5749386 122.940381,26.6093366 122.940381,28.7911548 Z" id="Shape"></path>
						</g>
					</g>
				</svg>