
<svg width="49px" height="20px" viewBox="0 0 49 20" version="1.1" xmlns="http://www.w3.org/2000/svg" xmlns:xlink="http://www.w3.org/1999/xlink">
    <g id="Symbols" stroke="none" stroke-width="1" fill="none" fill-rule="evenodd">
        <g id="Show-Contact-Panel" transform="translate(-197.000000, -52.000000)" fill="#FFFFFF" fill-rule="nonzero">
            <g id="send-email-icon" transform="translate(197.000000, 52.000000)">
                <path d="M44.1178991,15.0610922 L37.2557094,10.7251633 L44.0691926,5.68602038 C44.4039718,5.43893389 44.4745231,4.96744186 44.2270186,4.63308074 C43.9799321,4.29871962 43.50844,4.22816828 43.1740789,4.47567285 L33.5122028,11.6210086 L33.5081265,11.6177685 L33.5041547,11.6210086 L23.842174,4.47567285 C23.5083355,4.22816828 23.0368435,4.29871962 22.7892344,4.63308074 C22.5421479,4.96744186 22.6128038,5.43893389 22.9471649,5.68602038 L29.760648,10.7251633 L22.8988764,15.0610922 C22.5471649,15.2834074 22.4423308,15.7484191 22.6647505,16.1001307 C22.8079436,16.3266266 23.0517899,16.4511105 23.301803,16.4511105 C23.4397701,16.4511105 23.5784688,16.4133786 23.7035798,16.3342566 L31.0599425,11.6858113 L33.0608832,13.1660308 C33.1936242,13.2641756 33.3509276,13.3137183 33.5083355,13.3137183 C33.6658479,13.3137183 33.8232558,13.2641756 33.9563104,13.1660308 L35.9567285,11.6858113 L43.3131957,16.3342566 C43.4380977,16.4133786 43.577319,16.4511105 43.7149726,16.4511105 C43.9649856,16.4511105 44.2091455,16.3266266 44.3520251,16.1001307 C44.5739221,15.7484191 44.4692971,15.2834074 44.1178991,15.0610922 Z" id="Path"></path>
                <path d="M43.4231513,0 L23.5928926,0 C20.6812647,0 18.3124118,2.58102953 18.3124118,5.75333159 L18.3124118,14.2462503 C18.3124118,17.418866 20.6812647,20 23.5928926,20 L43.4232558,20 C46.3354063,20 48.7041547,17.4189705 48.7041547,14.2462503 L48.7041547,5.75333159 C48.7041547,2.58102953 46.3353018,0 43.4231513,0 Z M46.975699,14.2462503 C46.975699,16.3834858 45.3854194,18.1164359 43.4231513,18.1164359 L23.5928926,18.1164359 C21.6310426,18.1164359 20.040972,16.3834858 20.040972,14.2462503 L20.040972,5.75333159 C20.040972,3.61620068 21.6311471,1.88366867 23.5928926,1.88366867 L43.4232558,1.88366867 C45.3855239,1.88366867 46.975699,3.61620068 46.975699,5.75333159 L46.975699,14.2462503 L46.975699,14.2462503 Z" id="Shape"></path>
                <path d="M14.5087013,4.60580089 L0.853305461,4.60580089 C0.382231513,4.60580089 0,4.98792788 0,5.45910635 C0,5.93059838 0.382231513,6.31282989 0.853305461,6.31282989 L14.5087013,6.31282989 C14.9793572,6.31282989 15.3615887,5.93059838 15.3615887,5.45910635 C15.3615887,4.9880324 14.9793572,4.60580089 14.5087013,4.60580089 Z" id="Path"></path>
                <path d="M14.6925529,8.93368174 L3.98254507,8.93368174 C3.61327411,8.93368174 3.31340476,9.31549517 3.31340476,9.7869872 C3.31340476,10.2580611 3.61327411,10.6407107 3.98254507,10.6407107 L14.6925529,10.6407107 C15.0623465,10.6407107 15.3616932,10.2580611 15.3616932,9.7869872 C15.3616932,9.31549517 15.062242,8.93368174 14.6925529,8.93368174 Z" id="Path"></path>
                <path d="M14.8370003,13.26104 L6.43700026,13.26104 C6.14685132,13.26104 5.91230729,13.6432715 5.91230729,14.1143454 C5.91230729,14.585942 6.14685132,14.968069 6.43700026,14.968069 L14.8370003,14.968069 C15.1266266,14.968069 15.3616932,14.585942 15.3616932,14.1143454 C15.3616932,13.6432715 15.1267311,13.26104 14.8370003,13.26104 Z" id="Path"></path>
            </g>
        </g>
    </g>
</svg>