
<svg width="20px" height="16px" viewBox="0 0 20 16" version="1.1" xmlns="http://www.w3.org/2000/svg" xmlns:xlink="http://www.w3.org/1999/xlink">
    <g id="Symbols" stroke="none" stroke-width="1" fill="none" fill-rule="evenodd">
        <g id="Desktop-/-Navigation-/-Header-/-Main" transform="translate(-866.000000, -22.000000)" fill="#B0B0B0" fill-rule="nonzero">
            <path d="M871.365854,22 C868.338912,22 866,24.4727799 866,27.4144561 L866,28.8269236 C866,30.7037015 867.026946,32.2742418 868.5,33.2188061 C868.817071,34.5554407 868.631465,35.7762636 868.446646,37.2134393 C868.411793,37.5076214 868.570754,37.7915581 868.844805,37.924634 C869.118856,38.0577099 869.449815,38.0116726 869.67378,37.8093214 L873.599085,34.2413702 L874.292683,34.2413702 C874.556535,34.2449305 874.801939,34.111107 874.934941,33.8911337 C875.067943,33.6711604 875.067943,33.3991102 874.934941,33.1791369 C874.801939,32.9591636 874.556535,32.8253401 874.292683,32.8289004 L873.317073,32.8289004 C873.130238,32.8283441 872.950258,32.8967849 872.814024,33.0201944 L870.10061,35.4846402 C870.166693,34.5874407 870.162103,33.6626882 869.879573,32.6449946 C869.830132,32.461793 869.706563,32.305417 869.536585,32.2109477 C868.302711,31.5303363 867.463415,30.3220311 867.463415,28.8269236 L867.463415,27.4144561 C867.463415,25.1811513 869.157894,23.4124675 871.365854,23.4124675 L880.634146,23.4124675 C882.842107,23.4124675 884.536585,25.181149 884.536585,27.4144561 L884.536585,28.8269236 C884.536585,31.060266 882.842114,32.8289004 880.634146,32.8289004 L876.731707,32.8289004 C876.467855,32.8253401 876.222452,32.9591636 876.089449,33.1791369 C875.956447,33.3991102 875.956447,33.6711604 876.089449,33.8911337 C876.222452,34.111107 876.467855,34.2449305 876.731707,34.2413702 L880.634146,34.2413702 C883.661081,34.2413702 886,31.7686186 886,28.8269236 L886,27.4144561 C886,24.4727823 883.661088,22 880.634146,22 L871.365854,22 L871.365854,22 Z M872.341463,26.9436328 C871.541909,26.9436328 870.878049,27.5843807 870.878049,28.3561003 C870.878049,29.1278176 871.541909,29.7685725 872.341463,29.7685725 C873.141018,29.7685725 873.804878,29.1278176 873.804878,28.3561003 C873.804878,27.5843807 873.141018,26.9436328 872.341463,26.9436328 Z M876,26.9436328 C875.200445,26.9436328 874.536585,27.5843807 874.536585,28.3561003 C874.536585,29.1278176 875.200445,29.7685725 876,29.7685725 C876.799555,29.7685725 877.463415,29.1278176 877.463415,28.3561003 C877.463415,27.5843807 876.799555,26.9436328 876,26.9436328 Z M879.658537,26.9436328 C878.858982,26.9436328 878.195122,27.5843807 878.195122,28.3561003 C878.195122,29.1278176 878.858982,29.7685725 879.658537,29.7685725 C880.458091,29.7685725 881.121951,29.1278176 881.121951,28.3561003 C881.121951,27.5843807 880.458091,26.9436328 879.658537,26.9436328 Z" id="Shape"></path>
        </g>
    </g>
</svg>