
<svg width="31px" height="21px" viewBox="0 0 31 21" version="1.1" xmlns="http://www.w3.org/2000/svg" xmlns:xlink="http://www.w3.org/1999/xlink">
    <g id="Symbols" stroke="none" stroke-width="1" fill="none" fill-rule="evenodd">
        <g id="Show-Contact-Panel" transform="translate(-185.000000, -104.000000)" fill="#FFFFFF">
            <path d="M200.166667,104.944444 C203.778173,104.949435 207.106389,106.901346 208.873698,110.05089 C212.498784,110.642005 215.162415,113.771483 215.166667,117.444444 C215.166667,121.58658 211.808802,124.944444 207.666667,124.944444 L190.166667,124.944444 C187.405243,124.944444 185.166667,122.705868 185.166667,119.944444 C185.166667,117.183021 187.405243,114.944444 190.166667,114.944444 C190.166667,109.421597 194.643819,104.944444 200.166667,104.944444 Z M195.160807,112.444444 C194.146203,112.44401 193.232544,113.058493 192.850337,113.998354 C192.46813,114.938215 192.693625,116.01595 193.420573,116.723741 L198.402995,121.712999 C198.8706,122.181036 199.505068,122.444012 200.166667,122.444012 C200.828265,122.444012 201.462733,122.181036 201.930339,121.712999 L206.912761,116.723741 C207.556374,116.096391 207.812487,115.171173 207.583089,114.302161 C207.353691,113.433148 206.674296,112.754882 205.804904,112.526928 C204.935511,112.298974 204.01072,112.556626 203.38444,113.20128 L200.166667,116.423936 L196.948893,113.20128 C196.479633,112.717729 195.834622,112.444718 195.160807,112.444444 Z" id="Combined-Shape"></path>
        </g>
    </g>
</svg>