
<svg width="137px" height="49px" viewBox="0 0 137 49" version="1.1" xmlns="http://www.w3.org/2000/svg" xmlns:xlink="http://www.w3.org/1999/xlink">
    <g id="Lime-Pictures-Website" stroke="none" stroke-width="1" fill="none" fill-rule="evenodd">
        <g id="Search---mobile" transform="translate(-35.000000, -20.000000)" fill-rule="nonzero">
            <g id="Lime-Logo---Resized" transform="translate(35.000000, 20.000000)">
                <g id="lime_picutres_logo" transform="translate(89.000000, 0.000000)">
                    <path d="M35.535,41.9364 C36.5442,40.6416 38.1204,38.2404 38.7438,34.8942 C39.1554,32.6928 39.0048,30.8838 38.8962,30.0102 C38.6316,27.876 37.9962,26.3346 37.7982,25.8744 C37.3836,24.912 36.9258,24.1494 36.726,23.8188 C36.1764,22.908 35.673,22.2546 35.4498,21.972 C34.8816,21.2538 34.3956,20.7558 34.2582,20.6166 C33.2196,19.5636 32.235,18.9156 32.0292,18.7758 C31.3356,18.3342 31.0914,18.1872 31.0914,18.1872 C30.9426,18.1002 30.8154,18.0282 30.7158,17.9736 C30.5988,17.9088 30.4896,17.8488 30.3408,17.7732 C30.3036,17.7546 30.27,17.7372 30.2376,17.7216 C30.2112,17.709 30.1194,17.664 29.9964,17.607 C29.8194,17.526 29.676,17.4594 29.4792,17.3808 C29.2674,17.2956 29.1036,17.2398 28.9986,17.2038 C28.9014,17.1702 28.7886,17.1318 28.6362,17.0874 C28.5414,17.0604 28.4568,17.0388 28.2912,16.9974 C27.9096,16.902 27.8214,16.9002 27.741,16.9452 C27.7044,16.965 27.6918,17.0244 27.6846,17.0382 C27.621,17.163 27.8586,17.406 28.1172,17.6622 C28.7076,18.2478 28.7172,18.2706 28.8078,18.3732 C29.145,18.7512 29.355,18.996 29.5944,19.359 C30.4512,20.6586 30.5664,20.9256 30.8442,21.504 C31.5462,23.1174 32.127,25.53 32.0748,27.0426 C32.0646,27.3414 32.0622,27.6444 32.0622,27.6444 C32.0622,27.6444 32.0382,28.1844 31.9776,28.6668 C31.857,29.6322 31.5438,30.543 31.3584,31.0782 C31.092,31.8438 30.8322,32.406 30.7608,32.565 C30.5532,33.027 29.8368,34.5534 28.4064,36.2016 C28.1538,36.4932 27.2946,37.4622 25.9434,38.4906 C23.6274,40.254 21.4656,40.974 20.9544,41.1384 C19.008,41.7612 17.2944,41.8938 16.11,41.8938 C15.579,41.8938 13.1742,41.8668 10.4796,40.8642 C10.005,40.6872 9.0624,40.3314 7.965,39.6624 C7.2522,39.2274 6.6858,38.7894 6.3072,38.4978 C6.165,38.3868 5.8284,38.1222 5.4198,37.7598 C5.1408,37.5126 4.98,37.326 4.8414,37.1742 C4.7262,37.047 4.4898,36.8136 4.2636,36.5424 C4.2636,36.5424 4.2012,36.4644 4.0974,36.3588 C3.885,36.1422 3.7776,36.033 3.7332,36.0564 C3.7116,36.0684 3.6846,36.1188 3.7902,36.5058 C3.885,36.8556 3.9948,37.1382 4.2072,37.6572 C4.2984,37.8798 4.3452,37.9932 4.3986,38.118 C4.521,38.4006 4.6188,38.6076 4.7118,38.8044 C4.86,39.117 4.9578,39.3078 4.9842,39.36 C5.043,39.4728 5.0904,39.5628 5.1096,39.5988 C5.1096,39.5988 5.1948,39.7614 5.2848,39.9174 C5.754,40.731 6.1956,41.3442 6.4668,41.7018 C6.9966,42.402 7.4628,42.9036 7.6794,43.1304 C7.6794,43.1304 8.1462,43.62 8.6802,44.0928 C9.4194,44.7474 11.3424,46.224 13.3584,47.148 C16.0788,48.3942 20.9088,49.5246 26.1324,48.0786 C29.8704,47.0436 32.3082,45.1062 33.0246,44.508 C34.1466,43.569 34.9704,42.6438 35.535,41.9364" id="Path" fill="#00A79D"></path>
                    <path d="M5.4894,36.7482 C5.628,36.8778 6.8022,37.962 8.2494,38.8146 C11.5488,40.7574 15.2058,40.8708 15.6924,40.8804 C16.8384,40.9038 19.4754,40.8318 22.4562,39.492 C22.4562,39.492 25.4484,38.1468 27.7374,35.637 C27.8268,35.5386 28.8456,34.413 29.5854,33.153 C29.913,32.5944 30.2058,31.9836 30.2058,31.9836 C30.237,31.92 30.282,31.827 30.3336,31.7118 C30.3876,31.5906 30.4236,31.503 30.579,31.1118 C30.717,30.7644 30.7416,30.7008 30.7662,30.636 C30.8088,30.5202 30.8598,30.3798 30.9156,30.207 C30.918,30.1986 30.924,30.1812 30.9324,30.1524 C30.9528,30.0876 30.978,29.9988 31.1448,29.4324 C31.158,29.3856 31.2258,29.0904 31.2522,28.9866 C31.2792,28.8792 31.3182,28.6596 31.3464,28.4724 C31.4028,28.0878 31.4244,27.8256 31.4238121,27.7194 C31.4232,27.4662 31.3464,27.4242 31.2648,27.3888 C31.2006,27.36 31.1328,27.3798 31.098,27.39 C30.9456,27.4332 30.813,27.6444 30.7506,27.762 C30.7002,27.8586 30.6348,27.9924 30.5244,28.2204 C30.5244,28.2204 30.4314,28.4052 30.2796,28.6872 C30.2796,28.6872 30.141,28.9308 29.9562,29.2404 C29.5704,29.886 28.9998,30.5748 28.9434,30.645 C28.755,30.8736 28.3998,31.3062 28.0026,31.6962 C27.9204,31.7772 27.7002,31.9884 27.4524,32.2236 C27.3408,32.3286 27.2286,32.4354 27.177,32.4816 C27.0576,32.5902 26.7006,32.9094 26.1816,33.2934 C25.9956,33.4302 25.3608,33.8928 24.3924,34.419 C23.88,34.6968 23.0382,35.1498 21.8514,35.5566 C21.5088,35.673 20.4156,36.0336 18.9372,36.2424 C18.471,36.3084 17.7222,36.4104 16.7244,36.4014 C15.7962,36.3924 15.1074,36.2892 14.5122,36.1992 C13.8282,36.0948 12.9432,35.9562 11.8302,35.5848 C10.9806,35.2998 10.3692,35.0052 9.9678,34.8096 C9.4212,34.5432 8.4858,34.0806 7.401,33.2634 C6.561,32.6298 5.9964,32.0598 5.664,31.7208 C4.8048,30.8454 4.2396,30.0786 3.9912,29.7288 C3.756,29.397 3.5478,29.0772 3.3612,28.77 C3.0234,28.2126 2.4702,27.2244 2.0064,25.9446 C1.8192,25.4268 1.6878,24.9738 1.6056,24.6714 C1.5012,24.285 1.437,23.9892 1.3932,23.7894 C1.3326,23.508 1.305,23.3658 1.2792,23.1846 C1.2696,23.1174 1.2624,23.0502 1.2396,22.893 C1.2168,22.7328 1.2126,22.7202 1.1928,22.575 C1.1796,22.4844 1.176,22.4574 1.1658,22.3908 C1.1484,22.2864 1.1388,22.2336 1.1232,22.2 C1.11,22.1706 1.056,22.0566 0.942,22.0278 C0.876,22.011 0.8178,22.0314 0.795,22.0404 C0.6816,22.083 0.6138,22.1892 0.5604,22.3098 C0.4896,22.473 0.4698,22.656 0.4392,23.0148 C0.4152,23.2944 0.4026,23.5404 0.4014,23.5686 C0.3984,23.631 0.3978,23.6478 0.396,23.6814 C0.3948,23.6922 0.3948,23.6922 0.3924,23.7414 C0.3906,23.7714 0.3888,23.8122 0.3792,24.003 C0.375,24.1008 0.3726,24.1506 0.3696,24.2076 C0.3654,24.282 0.3636,24.3156 0.3612,24.3612 C0.3186,25.2576 0.3738,26.0544 0.3816,26.1624 C0.396,26.3556 0.4194,26.6214 0.459,26.937 C0.5466,27.6522 0.7092,28.569 1.0212,29.6184 C1.1496,30.0468 1.3266,30.5688 1.569,31.1526 C1.6692,31.3914 1.8312,31.7646 2.0562,32.211 C2.5788,33.2448 3.0822,33.9678 3.2538,34.2084 C3.567,34.6476 3.8262,34.9614 3.9978,35.1672 C4.68,35.9826 5.268,36.5418 5.4894,36.7482" id="Path" fill="#FBB040"></path>
                    <path d="M1.9368,23.4576 C2.1852,24.4284 2.463,25.1544 2.5812,25.4532 C3.6846,28.2306 5.3322,30.0366 5.9652,30.6876 C7.1478,31.9026 8.2536,32.649 8.7798,32.982 C9.5154,33.447 10.7556,34.1448 12.417,34.662 C13.5888,35.0262 15.7002,35.5284 18.3162,35.3016 C18.8586,35.2542 20.3094,35.0982 22.059,34.4964 C22.7334,34.2642 23.613,33.9102 24.5754,33.3714 C24.7074,33.2976 25.3782,32.9178 26.1804,32.2962 C27.7518,31.1466 27.7458002,30.6918 27.7458002,30.6918 C27.7458002,30.6036 27.7404,30.5544 27.6732,30.4986 C27.63,30.4626 27.543,30.4668 27.4452,30.486 C27.39,30.4962 27.2934,30.5196 27.1242,30.606 C27.0342,30.651 27.0096,30.6726 26.8968,30.7368 C26.8086,30.7878 26.7054,30.8436 26.5824,30.9048 C26.5824,30.9048 25.617,31.4514 24.8526,31.6842 C24.2382,31.8714 23.7816,31.938 23.1546,32.0292 C21.1734,32.3178 19.644,32.2122 18.9324,32.1408 C16.3452,31.8714 14.5128,31.053 14.1312,30.879 C13.0446,30.3822 12.267,29.8596 11.7708,29.523 C11.1102,29.076 10.1232,28.3974 9.0594,27.2574 C8.8032,26.982 8.1294,26.2374 7.434,25.14 C7.2744,24.8898 6.678,23.9352 6.1164,22.5378 C5.0928,19.9968 4.9446,17.8896 4.9122,17.3268 C4.8672,16.5156 4.8942,15.849 4.9236,15.4404 C4.9722,14.7564 5.1018,13.476 5.5602,11.9826 C5.652,11.6796 5.8098,11.1714 6.0888,10.5348 C6.2406,10.188 6.4878,9.7176 6.6378,9.4038 C6.6756,9.3234 6.8172,9.069 7.0884,8.5554 C7.2882,8.1756 7.4316,7.8966 7.3206,7.7598 C7.2894,7.7196 7.2462,7.7046 7.215,7.6956 C6.9654,7.6248 6.6432,7.8678 6.3414,8.0982 C6.0924,8.289 5.8974,8.4978 5.52,8.9094 C5.3382,9.1074 5.1426,9.321 4.8936,9.624 C4.8066,9.729 4.587,9.9996 4.2786,10.4262 C4.155,10.5972 3.744,11.1642 3.4062,11.727 C2.784,12.7632 2.4498,13.7154 2.268,14.2416 C2.1252,14.6556 1.7844,15.6996 1.5816,17.1018 C1.4232,18.1914 1.4046,19.1118 1.419,19.7574 C1.4316,20.3352 1.494,21.7248 1.9368,23.4576" id="Path" fill="#8DC63F"></path>
                    <path d="M5.931,14.9304 C5.9226,15.0882 5.883,15.789 5.9292,16.713 C5.955,17.232 6.0024,18.102 6.2412,19.2054 C6.336,19.644 6.438,20.1252 6.6618,20.7396 C7.0716,21.867 7.6242,22.7244 8.0592,23.2944 C8.622,24.0348 9.2058,24.5784 9.672,24.9564 C10.0092,25.2294 11.1138,26.0868 12.7602,26.5962 C13.0668,26.691 14.1864,27.0372 14.349,26.7474 C14.4732,26.5284 14.046,25.9476 13.83,25.653 C13.7712,25.5732 13.7874,25.6008 13.6134,25.3752 C13.4148,25.119 13.2162,24.8604 13.0266,24.5856 C12.8172,24.2808 12.6798,24.0396 12.5574,23.823 C12.3288,23.4198 12.1836,23.1072 11.9034,22.515 C11.7318,22.1526 11.6454,21.9708 11.5608,21.7674 C11.2788,21.0924 11.1318,20.5482 10.9998,20.0538 C10.9038,19.6956 10.785,19.2414 10.6854,18.6264 C10.6578,18.456 10.5912,18.0192 10.548,17.406 C10.4922,16.6062 10.4022,15.3402 10.6308,13.7136 C10.833,12.2724 11.1936,11.163 11.4078,10.5762 C11.6022,10.041 12.1398,8.6586 13.215,7.0854 C14.2134,5.6262 15.1986,4.7004 15.4782,4.4436 C16.455,3.5466 17.3676,2.9544 17.9472,2.613 C18.8658,2.073 19.728,1.704 20.2296,1.491 C21.6558,0.8868 22.3404,0.7608 22.317,0.6114 C22.2816,0.3828 20.6478,0.4074 19.4196,0.5646 C19.2378,0.588 18.5454,0.6804 17.6574,0.9096 C16.9824,1.0842 16.485,1.2624 16.1526,1.3824 C15.6798,1.5534 14.9712,1.8168 14.0976,2.2692 C14.0976,2.2692 13.5438,2.5578 13.0092,2.901 C11.2902,4.0032 9.8418,5.6394 9.8418,5.6394 C9.6672,5.838 9.2358,6.3342 8.7444,7.0278 C7.962,8.1306 7.5084,9.0516 7.3626,9.3564 C7.0506,10.0068 6.8538,10.5384 6.7614,10.7976 C6.5196,11.4792 6.0474,12.9672 5.931,14.9304" id="Path" fill="#8DC63F"></path>
                    <path d="M19.9722,2.3484 C18.8724,2.9172 18.1056,3.4704 17.8614,3.6492 C17.634,3.8166 16.9488,4.3308 16.1484,5.121 C14.979,6.2742 14.2758,7.3122 14.0766,7.614 C13.7976,8.0352 13.3698,8.7276 12.9528,9.639 C12.6762,10.242 12.2202,11.3424 11.9112,12.786 C11.472,14.8368 11.556,16.5132 11.6238,17.2944 C11.703,18.2016 11.9736,20.3454 13.1736,22.7592 C13.3614,23.1336 13.9644,24.309 15.0342,25.6374 C16.1814,27.0618 17.1336,27.756 18.3216,28.6224 L18.3222,28.6224 C18.3222,28.6224 19.9638,29.7954 20.6712,29.6742 C20.7036,29.6694 20.79,29.655 20.8374,29.5866 C20.8812,29.5236 20.8692,29.445 20.8632,29.412 C20.8314,29.2236 20.6694,29.1048 20.4492,28.9074 C20.4492,28.9074 20.3232,28.7934 20.0694,28.536 C19.9188,28.3836 19.8426,28.2906 19.614,28.0212 C19.0722,27.3828 19.1334,27.4746 18.9672,27.2658 C18.9078,27.1908 18.675,26.8962 18.3786,26.469 C18.198,26.2086 17.8776,25.743 17.5182,25.0926 C17.4768,25.0158 17.13,24.384 16.8258,23.6598 C16.062,21.8394 15.8094,20.0142 15.7782,19.7808 C15.4752,17.4948 15.7656,15.6504 15.9528,14.7336 C16.1694,13.6818 16.815,11.1162 18.8094,8.5146 C19.1442,8.0784 20.6904,6.1098 23.1582,4.647 C24.3978,3.9126 25.485,3.5094 25.8552,3.3774 C26.6706,3.0858 27.3894,2.9142 27.6456,2.8536 C27.8898,2.7966 28.4202,2.6772 28.962,2.598 C29.5818,2.508 29.9856,2.4816 30.4566,2.4588 C30.7632,2.4438 31.0434,2.4312 31.3686,2.4306 C31.5606,2.4306 31.7382,2.436 31.7634,2.436 C31.8762,2.439 31.9176,2.4414 32.2734,2.4576 C32.6946,2.4762 32.7024,2.4762 32.7744,2.4816 C32.961,2.4954 32.9766,2.5032 33.2448,2.5248 C33.4356,2.541 33.5508,2.5476 33.6912,2.5452 C33.6912,2.5452 34.0488,2.5392 34.1214,2.4198 C34.1262,2.4114 34.1292,2.4036 34.1316,2.3982 C34.14,2.3802 34.1586,2.328 34.1244,2.2374 C34.0026,1.9152 33.429,1.6878 33.2952,1.6362 C32.8236,1.4544 32.439,1.2984 31.812,1.1532 C31.4124,1.0602 31.0692,0.9912 30.7986,0.9414 C30.5334,0.8922 30.3306,0.8598 30.2538,0.8472 C30.0654,0.8172 29.757,0.7686 29.3544,0.7248 C29.0994,0.6978 28.8918,0.6816 28.7148,0.6678 C28.7148,0.6678 28.536,0.6546 28.3614,0.6438 C27.5232,0.594 26.0124,0.5148 24.1206,0.8892 C23.6334,0.9846 22.848,1.1664 21.9126,1.5012 C21.6096,1.6086 20.8746,1.8828 19.9722,2.3484" id="Path" fill="#8DC63F"></path>
                    <path d="M47.4774,15.903 C47.4732,15.87 47.4678,15.834 47.463,15.7938 C47.442,15.6534 47.418,15.519 47.4048,15.4494 C47.37,15.2646 47.3424,15.1272 47.3148,15.012 C47.3022,14.9544 47.2896,14.8992 47.2638,14.7906 C47.2398,14.6862 47.2188,14.613 47.2122,14.5908 C47.1246,14.2164 47.0328,13.9494 46.9038,13.5726 C46.755,13.1376 46.6158,12.7962 46.5276,12.5886 C46.4916,12.5046 46.461,12.432 46.431,12.366 C46.1406,11.7114 45.8682,11.2356 45.7338,11.0022 C44.7618,9.3186 43.5654,8.0562 43.5654,8.0562 C43.3536,7.8336 42.4278,6.87 40.9716,5.883 C40.2054,5.3634 39.5736,5.0292 39.3288,4.902 C37.6422,4.0302 36.153,3.6504 35.31,3.4764 C34.8354,3.3786 33.8142,3.192 32.4948,3.1608 C32.1072,3.1518 30.9594,3.1392 29.4918,3.3714 C28.5006,3.528 27.7698,3.7326 27.5514,3.7956 C27.1962,3.897 26.4042,4.1388 25.434,4.5744 C24.3,5.0838 23.5014,5.5998 23.2518,5.7648 C22.416,6.3156 21.7992,6.8442 21.4296,7.1814 C21.219,7.374 20.9886,7.6032 20.9532,7.6374 C20.8092,7.7796 20.3796,8.2038 19.9938,8.6406 C19.2234,9.516 18.7242,10.3386 18.4998,10.7112 C18.111,11.3592 17.8608,11.8848 17.7582,12.1074 C17.67,12.2988 17.5242,12.6144 17.3646,13.0446 C17.1144,13.7214 16.9704,14.2932 16.938,14.421 C16.8996,14.58 16.8504,14.778 16.8018,15.045 C16.7598,15.279 16.7292,15.507 16.7148,15.627 C16.7112,15.654 16.6794,15.927 16.6746,15.9702 C16.6686,16.023 16.6686,16.0212 16.6662,16.0446 C16.6236,16.4274 16.5918,16.7106 16.5702,17.037 C16.5384,17.5104 16.539,17.8836 16.5394367,18.1506 C16.5408,18.4146 16.5378,18.6084 16.5498,18.8778 C16.5546,18.9804 16.5672,19.2402 16.6014,19.5768 C16.6188,19.746 16.6434,19.9248 16.692,20.2758 C16.7448,20.6574 16.7772,20.8632 16.8336,21.1164 C16.9302,21.54 16.9896,21.6246 17.046,21.678 C17.0556,21.6864 17.0556,21.6894 17.076,21.7038 C17.1012,21.7212 17.1258,21.7242 17.1408,21.726 C17.1834,21.7302 17.2284,21.7128 17.2518,21.7026 C17.3862,21.6468 17.4894,21.4944 17.4894,21.4944 C17.5182,21.4602 17.5434,21.4224 17.5656,21.3834 C17.5998,21.3312 17.6286,21.2808 17.6634,21.225 C17.6928,21.1764 17.7216,21.1302 17.7792,21.0378 C17.7792,21.0378 17.8458,20.931 17.904,20.8422 C18.0192,20.6646 18.2754,20.3502 18.3762,20.2134 C19.1436,19.1724 19.9662,18.57 20.4372,18.2262 C21.8664,17.1828 23.2368,16.8012 23.9364,16.6134 C25.2222,16.2678 26.259,16.2312 26.679,16.2258 C27.7794,16.2126 28.602,16.3776 28.8648,16.434 C29.5536,16.581 30.0666,16.7706 30.2802,16.8534 C30.8706,17.082 31.2792,17.3118 31.7526,17.5818 C31.7526,17.5818 32.6082,18.0672 33.3516,18.6162 C36.1296,20.6664 37.5126,23.1144 38.0994,24.1776 C38.8476,25.533 39.2118,26.8218 39.2958,27.0894 C39.3576,27.2868 39.4962,27.8208 39.6276,28.4172 C39.7038,28.767 39.9054,29.7438 39.9696,31.1154 C40.0158,32.088 40.0776,33.5874 39.6684,35.4282 C39.4014,36.6318 39.0132,37.6206 38.8254,38.1 C38.6208,38.6232 38.4594,38.9682 38.391,39.1104 C38.064,39.7962 37.755,40.299 37.521,40.6788 C37.3746,40.9164 37.2384,41.1354 37.0332,41.4186 C36.7926,41.7516 36.612,41.9736 36.612,41.9736 C36.2376,42.4332 36.0336,42.606 36.0732,42.8406 C36.081,42.8796 36.1002,42.963 36.1692,43.0284 C36.3594,43.209 36.7518,43.0662 36.921,43.0056 C37.1106,42.9366 37.2492,42.8484 37.5012,42.6864 C37.6494,42.5928 37.785,42.4932 37.8102,42.4752 C37.8474,42.4482 37.9314,42.3858 38.043,42.297 C38.1816,42.186 38.2734,42.1026 38.5278,41.8776 C38.6742,41.7492 38.7648,41.6694 38.8908,41.5542 C39.1956,41.274 39.4146,41.0574 39.4902,40.9824 C39.5706,40.9032 39.654,40.8168 39.7434,40.725 C39.9516,40.5084 40.317,40.1274 40.749,39.588 C40.8618,39.447 41.1888,39.0324 41.5734,38.454 C42.0726,37.7028 42.4002,37.0776 42.54,36.8028 C43.1502,35.5992 43.461,34.6068 43.5564,34.29 C43.6542,33.966 43.8708,33.2046 44.0244,32.1966 C44.0658,31.9224 44.2026,30.9762 44.1996,29.7156 C44.199,29.2398 44.1954,28.5138 44.0616,27.5652 C43.998,27.114 43.8492,26.1468 43.4958,25.059 C43.3962,24.7518 43.167,23.9262 42.7764,23.106 C42.654,22.8498 42.2286,21.9312 41.3628,20.7186 C40.7058,19.7988 39.7428,18.471 38.0718,17.19 C38.0718,17.19 36.6618,16.1088 34.7958,15.297 C34.5114,15.1728 33.7506,14.8368 32.7624,14.5806 C32.3382,14.4702 31.6896,14.3004 30.5742,14.2068 C29.7984,14.142 28.7532,14.0514 27.4404,14.145 C27.12,14.1684 26.5398,14.2212 25.8168,14.3466 C23.7054,14.7132 22.2408,15.3756 21.8676,15.5514 C21.8592,15.5556 21.8502,15.5598 21.8418,15.564 L21.8412,15.5622 C21.8352,15.5658 21.8286,15.5682 21.8214,15.5682 C21.8004,15.5682 21.7824,15.5508 21.7824,15.5292 C21.7824,15.513 21.7932,15.4986 21.8076,15.4926 C21.8394,15.4698 21.8718,15.447 21.9042,15.4236 C22.518,14.9838 23.0004,14.7204 23.1528,14.6388 C23.847,14.2662 24.4104,14.0628 24.834,13.9116 C25.2648,13.758 25.9182,13.5276 26.808,13.359 C27.8496,13.1604 28.6686,13.1502 29.199,13.1466 C29.8392,13.1412 30.2274,13.1592 30.7794,13.212 C32.2188,13.35 32.4318,13.4796 33.2514,13.3566 C34.0062,13.2432 34.4034,13.0236 34.6728,12.8154 C34.8678,12.6642 35.3064,12.315 35.4834,11.682 C35.5314,11.508 35.6532,10.9818 35.421,10.4148 C35.256,10.0104 34.983,9.7602 34.8126,9.6042 C34.6014,9.4116 34.4094,9.2976 34.3284,9.2514 C34.0224,9.0792 33.762,9.015 33.5244,8.9586 C33.4494,8.9412 33.084,8.856 32.5782,8.8392 C32.307,8.8302 32.0106,8.8476 31.4286,8.8866 C30.9864,8.9166 30.765,8.931 30.468,8.9658 C30.3594,8.9784 29.949,9.0276 29.397,9.1344 C28.6146,9.285 28.0002,9.4638 27.687,9.5604 C26.4744,9.9354 25.5738,10.3728 25.1898,10.5696 C24.6774,10.8312 23.3646,11.5368 21.9294,12.807 C21.4272,13.2516 20.9916,13.6932 20.6166,14.109 L20.616,14.1084 C20.6082,14.118 20.5974,14.1246 20.5842,14.1246 C20.562,14.1246 20.5446,14.1066 20.5446,14.085 C20.5446,14.0766 20.5482,14.0682 20.5542,14.061 L20.5542,14.061 C20.5566,14.0568 20.5602,14.0526 20.5632,14.0484 C20.5782,14.028 20.5944,14.007 20.6094,13.986 C20.8638,13.6434 21.2022,13.2126 21.6564,12.7206 C21.7194,12.6528 22.3308,11.9958 23.073,11.3736 C25.1382,9.6438 27.5682,8.7306 27.732,8.6712 C28.4982,8.3892 30.543,7.7064 33.2658,7.713 C34.5816,7.716 35.5878,7.8792 35.9838,7.9506 C36.5262,8.0478 39.15,8.547 41.9226,10.3692 C42.0606,10.4604 43.4976,11.412 44.5734,12.5628 C45.0072,13.0266 45.4404,13.5744 45.4404,13.5744 C45.678,13.8816 45.8814,14.1654 46.053,14.4144 C46.197,14.6238 46.2876,14.7504 46.3824,14.8974 C46.4964,15.0738 46.5942,15.2358 46.6512,15.3336 C46.7082,15.4296 46.743,15.4902 46.77,15.5364 C46.7826,15.5586 46.8438,15.6636 46.8876,15.7398 C47.1012,16.1154 47.1258,16.2084 47.2296,16.2372 C47.2434,16.2408 47.3184,16.2618 47.3898,16.2222 C47.4552,16.1856 47.478,16.119 47.4816,16.1094 C47.4918,16.0776 47.4912,16.0518 47.4908828,16.0098 C47.4888,15.9822 47.4852,15.966 47.4774,15.903" id="Path" fill="#D03D8F"></path>
                </g>
                <g id="lime_picutres_logo" transform="translate(0.000000, 9.500000)" fill="#6E6F70">
                    <path d="M10.7931264,16.1039683 L2.39136806,16.1039683 L2.39136806,1.69920635 C2.39136806,1.36111111 2.27467697,1.07619048 2.04209405,0.846031746 C1.81031038,0.615079365 1.52417743,0.5 1.18369522,0.5 C0.858398828,0.5 0.580258425,0.615079365 0.347675503,0.846031746 C0.115891834,1.07698413 0,1.36111111 0,1.69920635 L0,17.3015873 C0,17.6404762 0.112694818,17.9230159 0.336485946,18.1539683 C0.560277075,18.384127 0.843213001,18.5 1.18369522,18.5 L10.7923272,18.5 C11.1328094,18.5 11.4189423,18.384127 11.6515252,18.1539683 C11.8841082,17.9230159 12,17.6404762 12,17.3015873 C12,16.9642857 11.8841082,16.6793651 11.6515252,16.4492063 C11.4197416,16.2190476 11.1336086,16.1039683 10.7931264,16.1039683" id="Path"></path>
                    <path d="M24.0003312,0.5 C23.7181186,0.5 23.480954,0.611904762 23.2881749,0.834126984 C23.0953958,1.05714286 23,1.3452381 23,1.6984127 L23,17.3015873 C23,17.6396825 23.0960583,17.9230159 23.2881749,18.1547619 C23.480954,18.384127 23.7174561,18.5 24.0003312,18.5 C24.2951308,18.5 24.5356078,18.384127 24.7210997,18.1547619 C24.9072541,17.9230159 25,17.6404762 25,17.3015873 L25,1.6984127 C25,1.3452381 24.9065916,1.05714286 24.7210997,0.834126984 C24.5356078,0.611111111 24.2951308,0.5 24.0003312,0.5" id="Path"></path>
                    <path d="M53.9510326,18.1547619 C54.1816901,18.3857143 54.4646616,18.5 54.8023251,18.5 C55.1249284,18.5 55.4047294,18.3857143 55.6425206,18.1547619 C55.8803118,17.9238095 56,17.6404762 56,17.302381 L56,1.69920635 C56,1.36111111 55.884275,1.07619048 55.6544101,0.846031746 C55.4237527,0.615873016 55.1399886,0.5 54.8023251,0.5 C54.3418028,0.5 53.9890792,0.715079365 53.7441543,1.1452381 L47.116914,14.3507937 L40.2550531,1.1452381 C40.0093355,0.715079365 39.6566119,0.5 39.1968823,0.5 C38.8592188,0.5 38.5754547,0.615873016 38.3447972,0.846031746 C38.1141398,1.07698413 38,1.36111111 38,1.69920635 L38,17.302381 C38,17.6396825 38.1149324,17.9238095 38.3447972,18.1547619 C38.5754547,18.3857143 38.8584262,18.5 39.1968823,18.5 C39.5345458,18.5 39.8183099,18.3857143 40.0481747,18.1547619 C40.2788322,17.9238095 40.3937646,17.6404762 40.3937646,17.302381 L40.3937646,6.57539683 L45.8954599,17.0944444 C46.1253248,17.5706349 46.4939011,17.8087302 46.9996037,17.8087302 C47.4292131,17.8087302 47.7748029,17.6095238 48.0355806,17.2103175 L53.6062354,6.36746032 L53.6062354,17.302381 C53.6054428,17.6396825 53.7203752,17.9238095 53.9510326,18.1547619" id="Path"></path>
                    <path d="M78.897245,2.71269841 C79.2278481,2.71269841 79.4951601,2.61349206 79.6969471,2.41349206 C79.8987342,2.21428571 80,1.95238095 80,1.63015873 C80,1.29126984 79.8979896,1.01904762 79.6969471,0.811111111 C79.4951601,0.603968254 79.2278481,0.5 78.897245,0.5 L69.1243485,0.5 C68.8064036,0.5 68.5398362,0.611904762 68.3239017,0.834126984 C68.1072226,1.05714286 68,1.3452381 68,1.69920635 L68,17.3015873 C68,17.6396825 68.1072226,17.9230159 68.3239017,18.1539683 C68.5398362,18.384127 68.8064036,18.5 69.1243485,18.5 L78.897245,18.5 C79.2278481,18.5 79.4951601,18.3960317 79.6969471,18.1888889 C79.8987342,17.9809524 80,17.7087302 80,17.3706349 C80,17.047619 79.8979896,16.7873016 79.6969471,16.5873016 C79.4951601,16.3873016 79.2278481,16.2873016 78.897245,16.2873016 L70.2486969,16.2873016 L70.2486969,10.5253968 L76.4534624,10.5253968 C76.7706627,10.5253968 77.0342517,10.4214286 77.2434847,10.2142857 C77.4527178,10.0071429 77.5577066,9.74206349 77.5577066,9.41904762 C77.5577066,9.0968254 77.4519732,8.83174603 77.2434847,8.62380952 C77.0349963,8.41666667 76.7706627,8.31269841 76.4534624,8.31269841 L70.2486969,8.31269841 L70.2486969,2.71111111 L78.897245,2.71111111 L78.897245,2.71269841 Z" id="Path"></path>
                    <path d="M4.78477728,23.8382394 C4.40060545,23.6124965 3.96597953,23.5 3.48089952,23.5 L1.51246937,23.5 C1.36759406,23.5 1.24650425,23.5494985 1.1477584,23.6492453 C1.04901254,23.7474923 1,23.8764882 1,24.0324834 L1,30.9675166 C1,31.117512 1.04901254,31.243508 1.14703762,31.3462548 C1.24578348,31.4490016 1.36759406,31.5 1.51174859,31.5 C1.66239008,31.5 1.78492144,31.4490016 1.88006343,31.3462548 C1.97592619,31.243508 2.02277642,31.117512 2.02277642,30.9675166 L2.02277642,28.7243367 L3.47945798,28.7243367 C3.96453798,28.7243367 4.39988468,28.6148402 4.78405651,28.395847 C5.16822834,28.1776038 5.46662823,27.8746133 5.67997694,27.4846255 C5.89260487,27.0946377 6,26.6521515 6,26.1534171 C6,25.6411831 5.89332565,25.1829474 5.67997694,24.78096 C5.467349,24.3782226 5.16894911,24.0632324 4.78477728,23.8382394 M4.58296093,27.2948814 C4.29393109,27.5918721 3.92705781,27.7411175 3.48017875,27.7411175 L2.02349719,27.7411175 L2.02349719,24.4832193 L3.48017875,24.4832193 C3.92705781,24.4832193 4.29321032,24.6399644 4.58296093,24.9542046 C4.87127,25.2691947 5.01614531,25.6681822 5.01614531,26.1534171 C5.01614531,26.6169026 4.87199077,26.9986407 4.58296093,27.2948814" id="Shape"></path>
                    <path d="M11.5,23.5 C11.3591549,23.5 11.2401408,23.548753 11.1443662,23.6485093 C11.0478873,23.7467654 11,23.8750234 11,24.0317832 L11,30.9674667 C11,31.1174761 11.0478873,31.243484 11.1443662,31.3469904 C11.2408451,31.4489968 11.3591549,31.5 11.5,31.5 C11.6471831,31.5 11.7676056,31.4489968 11.8605634,31.3469904 C11.9535211,31.243484 12,31.1174761 12,30.9674667 L12,24.0317832 C12,23.8750234 11.9535211,23.7467654 11.8605634,23.6485093 C11.7676056,23.548753 11.6471831,23.5 11.5,23.5" id="Path"></path>
                    <path d="M20.6116931,25.0179633 C21.0816717,24.7102569 21.5965979,24.5564037 22.1564718,24.5564037 C22.6012166,24.5564037 22.9647403,24.6139958 23.2438887,24.7308255 C23.5238256,24.8468324 23.8108595,25.0360636 24.105779,25.2976963 C24.220908,25.3947801 24.3462882,25.4449675 24.4827081,25.4449675 C24.6191281,25.4449675 24.739777,25.3947801 24.8438662,25.2976963 C24.9479554,25.2006125 25,25.0763781 25,24.9266386 C25,24.8303775 24.9850175,24.7456349 24.9566295,24.6740561 C24.927453,24.6024774 24.870677,24.5341896 24.783936,24.4659018 C24.3746761,24.1219947 23.9709361,23.8743487 23.572716,23.7246092 C23.1744959,23.5748697 22.7021516,23.5 22.1564718,23.5 C21.3884195,23.5 20.6866058,23.7007496 20.0518193,24.1006033 C19.4162442,24.5021026 18.915512,25.0442911 18.5488341,25.7304598 C18.1829447,26.4149831 18,27.1702624 18,27.9946522 C18,28.8264467 18.1829447,29.5866624 18.5488341,30.2744766 C18.9147234,30.9639364 19.4162442,31.5077704 20.0518193,31.9043331 C20.6873944,32.3000731 21.3884195,32.5 22.1564718,32.5 C23.1397995,32.5 24.0198265,32.1741933 24.7957643,31.5225798 C24.9101048,31.4024591 24.9676693,31.2650608 24.9676693,31.1070939 C24.9676693,30.942545 24.9227216,30.8092604 24.8328264,30.7088856 C24.7437197,30.6060426 24.6301678,30.5558552 24.4945364,30.5558552 C24.3794075,30.5558552 24.2603357,30.6011061 24.1388983,30.6899625 C23.5064774,31.1852546 22.8456686,31.4320779 22.1564718,31.4320779 C21.5965979,31.4320779 21.0816717,31.2782247 20.6116931,30.9721638 C20.1417145,30.6644574 19.7679396,30.2481488 19.4919455,29.723238 C19.2151628,29.1991498 19.0779543,28.6224061 19.0779543,27.9930067 C19.0779543,27.371012 19.2159513,26.7959137 19.4919455,26.2677119 C19.7679396,25.7419782 20.1417145,25.3240241 20.6116931,25.0179633" id="Path"></path>
                    <path d="M35.4664114,23.5 L29.5319643,23.5 C29.3768419,23.5 29.2493329,23.5464942 29.1502494,23.6379828 C29.0495417,23.7302212 29,23.8479565 29,23.9911886 C29,24.1351706 29.0495417,24.2536558 29.1502494,24.3451444 C29.250145,24.4373828 29.3768419,24.483877 29.5319643,24.483877 L31.928646,24.483877 L31.928646,30.9675666 C31.928646,31.1175478 31.9838728,31.2435321 32.0951386,31.3470191 C32.2064045,31.4490064 32.3428472,31.5 32.505279,31.5 C32.668523,31.5 32.8049658,31.4490064 32.9154194,31.3470191 C33.0266852,31.2435321 33.0819121,31.1175478 33.0819121,30.9675666 L33.0819121,24.483877 L35.4672236,24.483877 C35.622346,24.483877 35.749855,24.4373828 35.8497506,24.3451444 C35.9504583,24.2536558 36,24.1359205 36,23.9911886 C36,23.8487064 35.9496461,23.7302212 35.8497506,23.6379828 C35.7490428,23.5457443 35.622346,23.5 35.4664114,23.5" id="Path"></path>
                    <path d="M47.4475985,23.5 C47.288634,23.5 47.1543091,23.5477722 47.0462132,23.6455214 C46.9373226,23.7418006 46.8832747,23.8674782 46.8832747,24.0210841 L46.8832747,28.7093707 C46.8832747,29.0636197 46.7831271,29.3818558 46.5844215,29.6633441 C46.3857159,29.9440974 46.1091177,30.1631144 45.7538322,30.320395 C45.3993414,30.4784107 44.9979562,30.556316 44.5496764,30.556316 C44.0791416,30.556316 43.6610651,30.4784107 43.2954468,30.320395 C42.9298285,30.1631144 42.6436925,29.9440974 42.4378335,29.6633441 C42.2319746,29.3818558 42.1286477,29.0643546 42.1286477,28.7093707 L42.1286477,24.0210841 C42.1286477,23.8674782 42.0761894,23.7418006 41.9712729,23.6455214 C41.8663563,23.5477722 41.7312365,23.5 41.5643238,23.5 C41.4045646,23.5 41.2710344,23.5477722 41.1629386,23.6455214 C41.0540479,23.7418006 41,23.8674782 41,24.0210841 L41,28.7093707 C41,29.2510335 41.1494266,29.7331649 41.4498694,30.1550299 C41.7503123,30.5761599 42.1699784,30.9054203 42.7080731,31.1435462 C43.2477575,31.3809371 43.8613603,31.5 44.5488816,31.5 C45.2141478,31.5 45.8086749,31.3809371 46.3340525,31.1435462 C46.85943,30.9061553 47.2671738,30.5754249 47.5604633,30.1498852 C47.8537527,29.7250804 48,29.2444189 48,28.7093707 L48,24.0210841 C48,23.8674782 47.9475417,23.7418006 47.84342,23.6455214 C47.7385035,23.5477722 47.606563,23.5 47.4475985,23.5" id="Path"></path>
                    <path d="M57.4230279,28.1603544 C57.8231129,27.9698603 58.1389322,27.6856192 58.3711939,27.3106309 C58.6034556,26.9348927 58.7195865,26.5051561 58.7195865,26.0199213 C58.7195865,25.5279366 58.6147854,25.0907003 58.4051834,24.7089622 C58.1955814,24.3257242 57.9024218,24.0294835 57.5257046,23.8179901 C57.1475712,23.6057467 56.7205778,23.5 56.2433083,23.5 L54.5027616,23.5 C54.3611386,23.5 54.2421753,23.5487485 54.1451636,23.6484954 C54.0481518,23.7467423 54,23.8757383 54,24.0317334 L54,30.9667667 C54,31.116762 54.0481518,31.242758 54.1451636,31.3462548 C54.2421753,31.4490016 54.3611386,31.49925 54.5027616,31.49925 C54.6507577,31.49925 54.7718453,31.4490016 54.8653165,31.3462548 C54.9587877,31.242758 55.0055233,31.116762 55.0055233,30.9667667 L55.0055233,28.4160964 L56.2433083,28.4160964 L56.4175046,28.4160964 L58.0808667,31.243508 C58.1842515,31.4145027 58.328707,31.5 58.5163575,31.5 C58.6643535,31.5 58.7819006,31.4535015 58.8697068,31.3612543 C58.9560969,31.2690072 59,31.1550108 59,31.0177651 C59,30.9022687 58.9681348,30.7897722 58.9036964,30.6810256 L57.4230279,28.1603544 Z M56.2433083,27.4336271 L55.0055233,27.4336271 L55.0055233,24.4832193 L56.2433083,24.4832193 C56.6816315,24.4832193 57.042062,24.6257148 57.3267243,24.9137058 C57.6099703,25.2009468 57.7523014,25.5684354 57.7523014,26.0199213 C57.7523014,26.4361582 57.6106784,26.7758976 57.3267243,27.0383894 C57.042062,27.3016312 56.6816315,27.4336271 56.2433083,27.4336271" id="Shape"></path>
                    <path d="M69.4483577,24.4833115 C69.6137713,24.4833115 69.7475267,24.4383086 69.8480412,24.3498031 C69.9485556,24.2612976 70,24.1457904 70,24.0017814 C70,23.8510219 69.9493471,23.7302644 69.8480412,23.6380086 C69.7475267,23.5457529 69.6137713,23.5 69.4483577,23.5 L64.5627226,23.5 C64.4044321,23.5 64.2706767,23.548753 64.1630392,23.6485093 C64.0546102,23.7467654 64,23.8757735 64,24.0317832 L64,30.9674667 C64,31.1174761 64.0546102,31.243484 64.1630392,31.3469904 C64.2714681,31.4497469 64.4044321,31.5 64.5627226,31.5 L69.4483577,31.5 C69.6137713,31.5 69.7475267,31.4534971 69.8480412,31.3612413 C69.9485556,31.2689856 70,31.148228 70,30.9982186 C70,30.8542096 69.9493471,30.7387024 69.8480412,30.6501969 C69.7475267,30.5609413 69.6137713,30.5166885 69.4483577,30.5166885 L65.1246537,30.5166885 L65.1246537,27.9552785 L68.2263554,27.9552785 C68.3854373,27.9552785 68.5160269,27.9087755 68.6212901,27.8165198 C68.7257618,27.7250141 68.7772062,27.6072567 68.7772062,27.4632477 C68.7772062,27.3192387 68.7257618,27.2014813 68.6212901,27.1092256 C68.5160269,27.0169698 68.3854373,26.9704669 68.2263554,26.9704669 L65.1246537,26.9704669 L65.1246537,24.4818114 L69.4483577,24.4818114 L69.4483577,24.4833115 Z" id="Path"></path>
                    <path d="M78.3545001,27.3467875 C77.6001792,27.2644152 77.0755345,27.0930807 76.781334,26.8294893 C76.4871335,26.5675453 76.3404174,26.2405272 76.3404174,25.8509061 C76.3404174,25.4299835 76.5055691,25.1103789 76.833568,24.8887974 C77.1631033,24.6663921 77.5924978,24.5576606 78.124824,24.5576606 C78.5580591,24.5576606 78.9160159,24.6449753 79.1994623,24.8204283 C79.4829087,24.9975288 79.7194981,25.2545305 79.9076943,25.5914333 C79.9560876,25.6894563 80.0267571,25.7652389 80.1173985,25.8228995 C80.2080399,25.878089 80.3055947,25.9069193 80.411599,25.9069193 C80.5168352,25.9069193 80.6067085,25.8805601 80.6835232,25.8278418 C80.8240942,25.723229 80.8939956,25.5881384 80.8939956,25.4233937 C80.8939956,25.2957166 80.8509794,25.1614498 80.7680195,25.0181219 C80.4807323,24.5313015 80.1319933,24.1556837 79.7194981,23.8945634 C79.3062348,23.6317957 78.7992575,23.5 78.1985661,23.5 C77.6454999,23.5 77.1477404,23.5914333 76.702983,23.7751236 C76.2589937,23.9596376 75.9102548,24.2257002 75.6552298,24.5741351 C75.4002048,24.9233937 75.2719242,25.3385502 75.2719242,25.8179572 C75.2719242,26.5 75.5200358,27.068369 76.0170273,27.5214168 C76.5132505,27.976112 77.1953655,28.247117 78.062604,28.3369028 C78.6917168,28.4052718 79.1602868,28.5906096 79.4683139,28.8937397 C79.7763411,29.1985173 79.9307387,29.5634267 79.9307387,29.990939 C79.9307387,30.4415157 79.7486877,30.7957166 79.3845858,31.0543657 C79.0204839,31.3121911 78.5764947,31.4423394 78.0526181,31.4423394 C77.6047881,31.4423394 77.1961337,31.3410214 76.8251184,31.1392092 C76.4548713,30.9365733 76.2059916,30.6894563 76.0800154,30.3970346 C76.0316221,30.276771 75.9555755,30.1812191 75.8549482,30.1103789 C75.7535527,30.0378913 75.6467802,30.0024712 75.5353988,30.0024712 C75.4862374,30.0024712 75.4509026,30.0065898 75.4301626,30.0140033 C75.2972731,30.0444811 75.1920369,30.1021417 75.1152221,30.1878089 C75.0384074,30.2734761 75,30.3739703 75,30.4868204 C75,30.5461285 75.0168992,30.6210873 75.052234,30.7116969 C75.2611701,31.2438221 75.6444757,31.675453 76.1998464,32.0049423 C76.7559851,32.3336079 77.3735757,32.5 78.05185,32.5 C78.5695814,32.5 79.0542824,32.4044481 79.505185,32.2133443 C79.9560876,32.0214168 80.3186532,31.7314662 80.5905774,31.3459638 C80.8632697,30.9596376 81,30.4975288 81,29.9563427 C81,29.2149918 80.7687876,28.6153213 80.307131,28.1614498 C79.8447062,27.7092257 79.1948534,27.4365733 78.3545001,27.3467875" id="Path"></path>
                </g>
            </g>
        </g>
    </g>
</svg>